<?xml version="1.0" encoding="UTF-8"?>
<svg xmlns="http://www.w3.org/2000/svg" xmlns:xlink="http://www.w3.org/1999/xlink" width="543.49pt" height="499.64pt" viewBox="0 0 543.49 499.64" version="1.1">
<defs>
<clipPath id="clip1">
  <path d="M 283 0 L 543.488281 0 L 543.488281 418 L 283 418 Z M 283 0 "/>
</clipPath>
<clipPath id="clip2">
  <path d="M 87 246 L 455 246 L 455 499.640625 L 87 499.640625 Z M 87 246 "/>
</clipPath>
</defs>
<g id="surface1">
<path style=" stroke:none;fill-rule:nonzero;fill:#c79f5c;fill-opacity:1;" d="M 259.851563 0 L 222.527344 0 L 127.824219 27.054688 L 127.824219 78.375 L 161.882813 78.375 L 161.882813 200.136719 L 70.910156 292.972656 L 46.183594 270.113281 L 0 314.429688 L 43.386719 388.609375 L 68.578125 418 L 259.851563 226.726563 "/>
<g clip-path="url(#clip1)" clip-rule="nonzero">
<path style=" stroke:none;fill-rule:nonzero;fill:#c79f5c;fill-opacity:1;" d="M 283.644531 0 L 320.964844 0 L 415.667969 27.054688 L 415.667969 78.375 L 381.613281 78.375 L 381.613281 200.136719 L 472.582031 292.972656 L 497.308594 270.113281 L 543.492188 314.429688 L 500.105469 388.609375 L 474.914063 418 L 283.644531 226.726563 "/>
</g>
<g clip-path="url(#clip2)" clip-rule="nonzero">
<path style=" stroke:none;fill-rule:nonzero;fill:#c79f5c;fill-opacity:1;" d="M 271.046875 373.214844 L 333.09375 431.992188 L 308.835938 454.855469 L 352.6875 499.640625 L 428.265625 458.121094 L 454.390625 431.992188 L 271.046875 246.789063 L 87.707031 431.992188 L 113.828125 458.121094 L 189.40625 499.640625 L 233.257813 454.855469 L 209 431.992188 "/>
</g>
</g>
</svg>
